<svg id="Capa_1" data-name="Capa 1" xmlns="http://www.w3.org/2000/svg" viewBox="0 0 477.08 431.07"><defs><style>.cls-1{fill:#39343e;}.cls-2{fill:#6752a8;}.cls-3{fill:#5c4e93;}.cls-4{fill:#39333e;}</style></defs><path class="cls-1" d="M345.68,501.93c-2.64-4.38-4.83-8.05-7.05-11.71-9.06-14.91-18.18-29.8-27.18-44.76-1.47-2.44-2.68-3.64-5.09-1s-7.7,3.86-7.76,7.55c0,3.1,3.19,6.25,5.32,10-5.46,0-10.23-.06-15,0-2.91.05-3.31-2.44-4.37-4.14-5.92-9.49-5.88-9.5,2.87-16.49,8.55-6.83,17.09-13.68,25.89-20.73,19.34,32,38.47,63.65,58.09,96.12-11.37,0-21.78,0-32.19,0-6.32,0-13.81,1.94-18.63-.78s-7.6-9.86-10.07-15.59c-3.48-8.07-8.82-10.3-17.37-9.82-14.28.81-28.63.23-42.95.22-11.42,0-20.24-5.92-24-16.07s-.9-20.54,8.41-28q35.57-28.67,71.32-57.11c3-2.41,5.2-5.11,4.94-9.21-.29-4.76-3.71-8.19-8.85-8.37-5.63-.19-11.28,0-16.76,0-.69,1.14-.08,1.78.33,2.49,4.95,8.59,5,8.6-2.69,14.74q-12.08,9.69-24.17,19.34c-1.25,1-2.41,2.55-3.89.09-10.08-16.78-20.21-33.52-30.88-51.2h15.19c2.14,0,2.63,1.84,3.45,3.18,5.21,8.51,10.45,17,15.45,25.63,1.62,2.81,2.72,2.78,5.15.83,8.5-6.84,8.58-6.74,3-15.85-2.17-3.54-4.26-7.14-6.52-10.63-1.42-2.2-1.29-3.23,1.65-3.19,14.48.16,29,0,43.44.47,9.65.33,16.06,6,19.35,14.82,3.45,9.29,2,18-5.62,24.59-10.19,8.81-20.93,17-31.47,25.38q-20.89,16.63-41.86,33.2c-4.14,3.27-6.37,7.22-4.87,12.58,1.57,5.62,5.52,8.21,12.68,8.22,18.48.05,37,.13,55.44-.08,3.67,0,5.68,1.1,7.43,4.26,3.37,6.11,7.3,11.91,10.81,17.94,1.31,2.25,2.74,3.41,5.5,3.25C336.37,501.75,340.64,501.93,345.68,501.93Z" transform="translate(-59.75 -86.34)"/><path class="cls-1" d="M116.46,357.09c16.82,0,33.64-.17,50.46,0,26.74.33,44.48,25.12,35.73,49.65-5.26,14.74-19.16,24.27-36,24.48-9.15.11-18.31,0-27.47-.07-20-.06-40,0-60-.27-4.26-.06-5.29,1.25-5.2,5.32.26,11.81.18,23.64,0,35.46,0,3,.84,4,3.94,4,11,.15,11,.27,11-10.86,0-5.16.12-10.32,0-15.48-.09-2.61.82-3.35,3.42-3.45,11.41-.45,11.41-.54,11.41,10.87,0,10-.12,20,.07,30,0,3.09-.87,4-3.94,3.93q-18.24-.24-36.48,0c-2.88,0-3.63-.9-3.62-3.69.1-22.31.17-44.62,0-66.92,0-4.08,2.08-3.67,4.65-3.66q50.22.15,100.43.27c7.8,0,14.82-2,20-8.36,5.93-7.32,6.81-15.44,2.93-23.84C184,376.35,177.15,372,168.28,372c-30-.18-60,0-89.93-.13-3.16,0-4.29.68-4.29,4.08,0,11-.15,11,10.82,11q40,0,79.94,0c2,0,4-.2,5.85.81,2.75,1.47,4.34,3.57,4.21,6.76a6.84,6.84,0,0,1-4.64,6.46,14.78,14.78,0,0,1-5.89.79c-33.15,0-66.29-.09-99.43.09-4.2,0-5.26-1.12-5.16-5.23.28-11.81.22-23.64,0-35.45-.06-3.37,1-4.15,4.22-4.12C81.49,357.16,99,357.09,116.46,357.09Z" transform="translate(-59.75 -86.34)"/><path class="cls-2" d="M203.84,229c.89-1.51,2.64-1.76,4.08-2.39q43.05-19.15,86.14-38.23c2-.9,3.82-1.4,6.13-.37Q345,208,389.94,227.9c.45.2.86.49,1.33.76-.24,2-2,2-3.25,2.53q-43.24,19.34-86.52,38.6c-2.35,1-4.42,1.64-7.07.45q-44.34-19.94-88.78-39.66C205,230.27,204,230.14,203.84,229Z" transform="translate(-59.75 -86.34)"/><path class="cls-3" d="M245.19,293.79c-5.18.64-4.74-2-4.48-6,.55-8.14,1.87-16.16,3.22-24.19.58-3.49,2-3.69,4.95-2.36,14.85,6.7,29.82,13.14,44.65,19.9a8.68,8.68,0,0,0,8-.05c15.15-6.86,30.4-13.48,45.52-20.39,2.9-1.33,4-1.08,4.54,2.17,1.45,9.21,2.14,18.48,2.89,27.76.25,3-.78,4-3.85,4.15-18.64.72-35.45,6.92-50.54,17.71-2.23,1.59-3.52,1.44-5.6,0a128.51,128.51,0,0,0-38-17.21A36.36,36.36,0,0,0,245.19,293.79Z" transform="translate(-59.75 -86.34)"/><path class="cls-1" d="M502.53,431.52H449.27q-8.53,0-13.27-.09c-3.16-.06-5.5-.1-7-.1h-4.17a34.68,34.68,0,0,1-13.27-3.69,38.07,38.07,0,0,1-10.61-8.06,36.76,36.76,0,0,1-9.67-25,36,36,0,0,1,2.94-14.4,36.72,36.72,0,0,1,19.55-19.62,36.05,36.05,0,0,1,14.52-2.93H508a28.07,28.07,0,0,1,11.2,2.27,28.51,28.51,0,0,1,15.37,15.35,28.51,28.51,0,0,1,2.28,11.37V402H428.42a7.54,7.54,0,0,1-5.21-2.28,7.57,7.57,0,0,1,0-10.23,7.34,7.34,0,0,1,5-2.28h93.63v-.38a14.24,14.24,0,0,0-14.41-14.4H428.23a22.2,22.2,0,0,0-8.62,1.7,20.93,20.93,0,0,0-7,4.74,24.14,24.14,0,0,0-4.73,7.11,21.9,21.9,0,0,0,3.79,23.31,22.21,22.21,0,0,0,13.76,7.3h53.53q8.54,0,13.29.09t7.11.1h3.9a35.31,35.31,0,0,1,13.19,3.69,37.11,37.11,0,0,1,10.72,8.15,37.67,37.67,0,0,1,7.12,11.47,37,37,0,0,1-.38,28,37,37,0,0,1-19.55,19.52A35.43,35.43,0,0,1,500,490.47h-79.9a27.93,27.93,0,0,1-11.3-2.28,29.11,29.11,0,0,1-15.27-15.26,27.79,27.79,0,0,1-2.28-11.27V446.12h108.6a6.72,6.72,0,0,1,5.21,2.46,7.62,7.62,0,0,1,0,9.86,6.78,6.78,0,0,1-5.21,2.46H406.06v.38a14.24,14.24,0,0,0,14.4,14.4h79.41a21.51,21.51,0,0,0,8.53-1.7,22.94,22.94,0,0,0,7-4.65,22.11,22.11,0,0,0,4.84-7,21.52,21.52,0,0,0,1.8-8.81,21.26,21.26,0,0,0-1.52-8,22.26,22.26,0,0,0-4.17-6.73A22.8,22.8,0,0,0,510.2,434,22.29,22.29,0,0,0,502.53,431.52Z" transform="translate(-59.75 -86.34)"/><path class="cls-4" d="M214.6,108.17a9.17,9.17,0,0,1-2.48,6.57q-2.82,3-9.92,3l-1.55,0h-1.53a74.53,74.53,0,0,1-9.47-.32c-.42-.09-.63-.31-.63-.67q0-2.31.27-7t.27-7q0-2.51-.26-9.4-.06-1.77-.24-5.31l0-.3c0-.27.22-.44.68-.5s2.13-.08,5-.08q6.87,0,8,0c3.54.13,6.15.7,7.83,1.73q3.34,2,3.34,6.92a5.67,5.67,0,0,1-.77,2.69,11.4,11.4,0,0,1-1.47,2,5.16,5.16,0,0,1-.8.82c0,.1.19.26.56.48a5.71,5.71,0,0,1,2.37,2.74A8.39,8.39,0,0,1,214.6,108.17ZM205.33,96a2.41,2.41,0,0,0-1.86-2.46,12.91,12.91,0,0,0-3.41-.32c-1.55,0-2.32.12-2.32.35s0,.68-.08,1.24-.08,1-.08,1.24c0,1.43.13,2.24.37,2.41a8.81,8.81,0,0,0,2.74.2Q205.33,98.68,205.33,96Zm.64,12.06a2.6,2.6,0,0,0-1.61-2.63A9.47,9.47,0,0,0,201,105a10.12,10.12,0,0,0-3,.2,6.82,6.82,0,0,0-.23,2.64c0,1.7.09,2.64.28,2.82s1.22.27,3.1.27a10,10,0,0,0,3.28-.37A2.43,2.43,0,0,0,206,108.08Z" transform="translate(-59.75 -86.34)"/><path class="cls-4" d="M225.17,107.58c0,1,0,2.62.06,4.69s.07,3.64.07,4.67q0,.47-.54.54a42.2,42.2,0,0,1-6.62,0c-.32,0-.51-.15-.58-.28a2.23,2.23,0,0,1-.05-.64c0-1,0-2.49.07-4.48s.06-3.49.06-4.5a80.31,80.31,0,0,0-.47-9.75c0-.23,0-.38,0-.45,0-.29.2-.43.59-.43s1,0,1.84.13a18.58,18.58,0,0,0,1.87.13c.41,0,1,0,1.87-.11s1.46-.11,1.88-.11.52.15.52.43c0,.06,0,.2-.05.41A89.9,89.9,0,0,0,225.17,107.58Zm.56-16q0,3.75-4.23,3.75a4.7,4.7,0,0,1-3-1,3.6,3.6,0,0,1,.05-5.56,4.55,4.55,0,0,1,2.95-1,4.39,4.39,0,0,1,2.91,1A3.39,3.39,0,0,1,225.73,91.56Z" transform="translate(-59.75 -86.34)"/><path class="cls-4" d="M249.09,105.77c0,1.45-.47,2.28-1.4,2.48q-.24,0-4.47.48c-1.69.18-4.23.41-7.59.66a3.05,3.05,0,0,0,1.83,2.14,6.55,6.55,0,0,0,2.85.6,8.13,8.13,0,0,0,3.86-1l1.64-1a6.53,6.53,0,0,1,1.52,2.2,8.24,8.24,0,0,1,1.07,2.53c0,.1-.11.26-.33.49q-2.62,2.84-8.17,2.83a11.51,11.51,0,0,1-8.28-3,10.63,10.63,0,0,1-3.24-8.13,11.62,11.62,0,0,1,2.89-8.13,10.15,10.15,0,0,1,7.9-3.28,9.38,9.38,0,0,1,7,3A10.06,10.06,0,0,1,249.09,105.77Zm-7.55-1.31a3.36,3.36,0,0,0-.95-2.36,3,3,0,0,0-2.26-1,2.73,2.73,0,0,0-2.25,1.14,4,4,0,0,0-.82,2.48.53.53,0,0,0,.61.59,38.35,38.35,0,0,0,5-.5C241.3,104.73,241.54,104.61,241.54,104.46Z" transform="translate(-59.75 -86.34)"/><path class="cls-4" d="M272.9,116.86a.62.62,0,0,1-.6.67c-.41,0-1.46.08-3.15.08a23.94,23.94,0,0,1-3.37-.13.78.78,0,0,1-.65-.88c0-.68,0-1.7.07-3.06s.06-2.4.06-3.09c0-.53,0-1.32,0-2.38s0-1.85,0-2.39c0-2-.86-3-2.57-3a3.73,3.73,0,0,0-2,.73c-.81.55-1.21,1.09-1.21,1.62v11.65a.71.71,0,0,1-.67.8c-.5,0-1.53.08-3.08.08a24.42,24.42,0,0,1-3.28-.13.68.68,0,0,1-.67-.71c0-1.12,0-2.81,0-5.07s0-4,0-5.09a33.26,33.26,0,0,0-.84-8.43,1.45,1.45,0,0,1,0-.32.49.49,0,0,1,.32-.48c.91-.1,2.12-.26,3.63-.47,2.28-.45,3.57-.67,3.86-.67s.28.48.36,1.45.21,1.46.37,1.46c-.16,0,.62-.5,2.32-1.5a9.14,9.14,0,0,1,4.48-1.5,7.71,7.71,0,0,1,4.57,1.3,4.84,4.84,0,0,1,2.05,4.14v6.88c0,.93,0,2.33,0,4.19S272.9,115.92,272.9,116.86Z" transform="translate(-59.75 -86.34)"/><path class="cls-4" d="M297.25,102.51a20.74,20.74,0,0,1-.24,4.36,25.9,25.9,0,0,1-3,5.2,57.56,57.56,0,0,1-3.69,4.92c-.38.44-1.51.67-3.39.67a17.15,17.15,0,0,1-3.19-.18,1.49,1.49,0,0,1-.76-.43,48,48,0,0,1-3.68-4.87,28.93,28.93,0,0,1-3.07-5.11,13.94,13.94,0,0,1-.54-4.47c0-.56,0-1.4,0-2.53s0-2,0-2.56c0-.37.25-.56.75-.56.74,0,1.84,0,3.31.06s2.58.07,3.31.07c.33,0,.5.22.5.67s0,1-.09,1.82-.08,1.43-.08,1.84c0,1.5,0,2.72.13,3.67a8.71,8.71,0,0,0,1.25,2.76c.82,1.43,1.41,2.14,1.79,2.14s.93-.7,1.72-2.1a9,9,0,0,0,1.23-2.67,32.47,32.47,0,0,0,.18-3.71c0-.42,0-1-.13-1.89s-.13-1.46-.13-1.86.15-.67.45-.67l1.54,0c.68,0,1.2,0,1.54,0s.87,0,1.57-.08,1.22-.09,1.56-.09a.7.7,0,0,1,.71.56A21.09,21.09,0,0,1,297.25,102.51Z" transform="translate(-59.75 -86.34)"/><path class="cls-4" d="M319.94,105.77c0,1.45-.47,2.28-1.4,2.48q-.24,0-4.47.48c-1.69.18-4.22.41-7.59.66a3.05,3.05,0,0,0,1.83,2.14,6.55,6.55,0,0,0,2.85.6,8.13,8.13,0,0,0,3.86-1l1.64-1a6.53,6.53,0,0,1,1.52,2.2,8.24,8.24,0,0,1,1.07,2.53c0,.1-.11.26-.32.49-1.76,1.89-4.48,2.83-8.18,2.83a11.51,11.51,0,0,1-8.28-3,10.63,10.63,0,0,1-3.24-8.13,11.62,11.62,0,0,1,2.89-8.13,10.15,10.15,0,0,1,7.9-3.28,9.38,9.38,0,0,1,7,3A10,10,0,0,1,319.94,105.77Zm-7.55-1.31a3.36,3.36,0,0,0-.95-2.36,3,3,0,0,0-2.26-1,2.73,2.73,0,0,0-2.25,1.14,4,4,0,0,0-.82,2.48.53.53,0,0,0,.61.59,38.19,38.19,0,0,0,5-.5C312.15,104.73,312.39,104.61,312.39,104.46Z" transform="translate(-59.75 -86.34)"/><path class="cls-4" d="M343.75,116.86a.62.62,0,0,1-.6.67c-.41,0-1.46.08-3.15.08a24,24,0,0,1-3.37-.13.77.77,0,0,1-.64-.88q0-1,.06-3.06t.06-3.09c0-.53,0-1.32,0-2.38s0-1.85,0-2.39c0-2-.86-3-2.57-3a3.73,3.73,0,0,0-2,.73c-.81.55-1.21,1.09-1.21,1.62v11.65a.71.71,0,0,1-.67.8c-.5,0-1.53.08-3.08.08a24.42,24.42,0,0,1-3.28-.13.68.68,0,0,1-.67-.71c0-1.12,0-2.81,0-5.07s0-4,0-5.09a33.19,33.19,0,0,0-.85-8.43,2.51,2.51,0,0,1,0-.32.49.49,0,0,1,.32-.48c.91-.1,2.12-.26,3.63-.47,2.28-.45,3.57-.67,3.86-.67s.28.48.36,1.45.21,1.46.37,1.46c-.16,0,.62-.5,2.32-1.5a9.17,9.17,0,0,1,4.48-1.5,7.68,7.68,0,0,1,4.57,1.3,4.84,4.84,0,0,1,2,4.14v6.88c0,.93,0,2.33,0,4.19S343.75,115.92,343.75,116.86Z" transform="translate(-59.75 -86.34)"/><path class="cls-4" d="M355.33,107.58c0,1,0,2.62.07,4.69s.06,3.64.06,4.67q0,.47-.54.54a24.38,24.38,0,0,1-3.3.13,24.64,24.64,0,0,1-3.32-.13c-.32,0-.51-.15-.58-.28a2.43,2.43,0,0,1,0-.64c0-1,0-2.49.06-4.48s.06-3.49.06-4.5a78.3,78.3,0,0,0-.47-9.75,4,4,0,0,1,0-.45c0-.29.19-.43.58-.43a18.3,18.3,0,0,1,1.84.13,18.58,18.58,0,0,0,1.87.13c.42,0,1,0,1.87-.11s1.46-.11,1.88-.11.52.15.52.43c0,.06,0,.2,0,.41A87.22,87.22,0,0,0,355.33,107.58Zm.56-16q0,3.75-4.23,3.75a4.65,4.65,0,0,1-3-1,3.59,3.59,0,0,1,0-5.56,4.55,4.55,0,0,1,3-1,4.42,4.42,0,0,1,2.92,1A3.4,3.4,0,0,1,355.89,91.56Z" transform="translate(-59.75 -86.34)"/><path class="cls-4" d="M382.36,86.88c0-.32-.06.16-.18,1.42-.15,1.6-.28,3.64-.36,6.13q-.18,4.21-.18,9.62a111.1,111.1,0,0,0,.5,12.68c0,.27,0,.44,0,.52s-.1.25-.32.28c-.52.07-2.42.1-5.72.1-.77,0-1.22-.15-1.33-.45l-.09-1.64a.61.61,0,0,0-.17-.34,1.1,1.1,0,0,0-.32.26,8,8,0,0,1-5.83,2.28,9.13,9.13,0,0,1-7.29-3.19,11.38,11.38,0,0,1-2.61-7.68,11.6,11.6,0,0,1,2.57-7.74,9.06,9.06,0,0,1,7.33-3.24A6.39,6.39,0,0,1,373.47,98c.2.23.35.35.43.35s.2-.19.2-.56c0-1.11,0-2.76-.09-5s-.09-3.85-.09-4.94c0-.42.12-.66.35-.71.92,0,2.18-.13,3.79-.26a32.42,32.42,0,0,0,3.82-.54Q382.36,86.34,382.36,86.88Zm-8.13,19.82a4.28,4.28,0,0,0-1.19-3,3.78,3.78,0,0,0-2.87-1.28,3.44,3.44,0,0,0-2.81,1.28,4.71,4.71,0,0,0-1.05,3.07,4.32,4.32,0,0,0,1.06,3,3.48,3.48,0,0,0,2.8,1.29,3.74,3.74,0,0,0,2.89-1.29A4.39,4.39,0,0,0,374.23,106.7Z" transform="translate(-59.75 -86.34)"/><path class="cls-4" d="M406.3,106.87a10.92,10.92,0,0,1-3,8,11.68,11.68,0,0,1-15.72,0,10.43,10.43,0,0,1-3.06-7.76A11.35,11.35,0,0,1,387.45,99a10.36,10.36,0,0,1,7.93-3.12,10.62,10.62,0,0,1,7.9,3.06A10.78,10.78,0,0,1,406.3,106.87Zm-7.08,0a4.63,4.63,0,0,0-1.06-3,3.34,3.34,0,0,0-2.73-1.3,3.49,3.49,0,0,0-2.81,1.33,4.85,4.85,0,0,0,0,6,3.49,3.49,0,0,0,2.81,1.34,3.45,3.45,0,0,0,2.78-1.34A4.63,4.63,0,0,0,399.22,106.87Z" transform="translate(-59.75 -86.34)"/></svg>