<svg id="Capa_1" data-name="Capa 1" xmlns="http://www.w3.org/2000/svg" viewBox="0 0 477.08 330"><defs><style>.cls-1{fill:#39343e;}.cls-2{fill:#6752a8;}.cls-3{fill:#5c4e93;}</style></defs><path class="cls-1" d="M345.68,501.93c-2.64-4.38-4.83-8.05-7.05-11.71-9.06-14.91-18.18-29.8-27.18-44.76-1.47-2.44-2.68-3.64-5.09-1s-7.7,3.86-7.76,7.55c0,3.1,3.19,6.25,5.32,10-5.46,0-10.23-.06-15,0-2.91.05-3.31-2.44-4.37-4.14-5.92-9.49-5.88-9.5,2.87-16.49,8.55-6.83,17.09-13.68,25.89-20.73,19.34,32,38.47,63.65,58.09,96.12-11.37,0-21.78,0-32.19,0-6.32,0-13.81,1.94-18.63-.78s-7.6-9.86-10.07-15.59c-3.48-8.07-8.82-10.3-17.37-9.82-14.28.81-28.63.23-42.95.22-11.42,0-20.24-5.92-24-16.07s-.9-20.54,8.41-28q35.57-28.67,71.32-57.11c3-2.41,5.2-5.11,4.94-9.21-.29-4.76-3.71-8.19-8.85-8.37-5.63-.19-11.28,0-16.76,0-.69,1.14-.08,1.78.33,2.49,4.95,8.59,5,8.6-2.69,14.74q-12.08,9.69-24.17,19.34c-1.25,1-2.41,2.55-3.89.09-10.08-16.78-20.21-33.52-30.88-51.2h15.19c2.14,0,2.63,1.84,3.45,3.18,5.21,8.51,10.45,17,15.45,25.63,1.62,2.81,2.72,2.78,5.15.83,8.5-6.84,8.58-6.74,3-15.85-2.17-3.54-4.26-7.14-6.52-10.63-1.42-2.2-1.29-3.23,1.65-3.19,14.48.16,29,0,43.44.47,9.65.33,16.06,6,19.35,14.82,3.45,9.29,2,18-5.62,24.59-10.19,8.81-20.93,17-31.47,25.38q-20.89,16.63-41.86,33.2c-4.14,3.27-6.37,7.22-4.87,12.58,1.57,5.62,5.52,8.21,12.68,8.22,18.48.05,37,.13,55.44-.08,3.67,0,5.68,1.1,7.43,4.26,3.37,6.11,7.3,11.91,10.81,17.94,1.31,2.25,2.74,3.41,5.5,3.25C336.37,501.75,340.64,501.93,345.68,501.93Z" transform="translate(-59.75 -187.41)"/><path class="cls-1" d="M116.46,357.09c16.82,0,33.64-.17,50.46,0,26.74.33,44.48,25.12,35.73,49.65-5.26,14.74-19.16,24.27-36,24.48-9.15.11-18.31,0-27.47-.07-20-.06-40,0-60-.27-4.26-.06-5.29,1.25-5.2,5.32.26,11.81.18,23.64,0,35.46,0,3,.84,4,3.94,4,11,.15,11,.27,11-10.86,0-5.16.12-10.32,0-15.48-.09-2.61.82-3.35,3.42-3.45,11.41-.45,11.41-.54,11.41,10.87,0,10-.12,20,.07,30,0,3.09-.87,4-3.94,3.93q-18.24-.24-36.48,0c-2.88,0-3.63-.9-3.62-3.69.1-22.31.17-44.62,0-66.92,0-4.08,2.08-3.67,4.65-3.66q50.22.15,100.43.27c7.8,0,14.82-2,20-8.36,5.93-7.32,6.81-15.44,2.93-23.84C184,376.35,177.15,372,168.28,372c-30-.18-60,0-89.93-.13-3.16,0-4.29.68-4.29,4.08,0,11-.15,11,10.82,11q40,0,79.94,0c2,0,4-.2,5.85.81,2.75,1.47,4.34,3.57,4.21,6.76a6.84,6.84,0,0,1-4.64,6.46,14.78,14.78,0,0,1-5.89.79c-33.15,0-66.29-.09-99.43.09-4.2,0-5.26-1.12-5.16-5.23.28-11.81.22-23.64,0-35.45-.06-3.37,1-4.15,4.22-4.12C81.49,357.16,99,357.09,116.46,357.09Z" transform="translate(-59.75 -187.41)"/><path class="cls-2" d="M203.84,229c.89-1.51,2.64-1.76,4.08-2.39q43.05-19.15,86.14-38.23c2-.9,3.82-1.4,6.13-.37Q345,208,389.94,227.9c.45.2.86.49,1.33.76-.24,2-2,2-3.25,2.53q-43.24,19.34-86.52,38.6c-2.35,1-4.42,1.64-7.07.45q-44.34-19.94-88.78-39.66C205,230.27,204,230.14,203.84,229Z" transform="translate(-59.75 -187.41)"/><path class="cls-3" d="M245.19,293.79c-5.18.64-4.74-2-4.48-6,.55-8.14,1.87-16.16,3.22-24.19.58-3.49,2-3.69,4.95-2.36,14.85,6.7,29.82,13.14,44.65,19.9a8.68,8.68,0,0,0,8-.05c15.15-6.86,30.4-13.48,45.52-20.39,2.9-1.33,4-1.08,4.54,2.17,1.45,9.21,2.14,18.48,2.89,27.76.25,3-.78,4-3.85,4.15-18.64.72-35.45,6.92-50.54,17.71-2.23,1.59-3.52,1.44-5.6,0a128.51,128.51,0,0,0-38-17.21A36.36,36.36,0,0,0,245.19,293.79Z" transform="translate(-59.75 -187.41)"/><path class="cls-1" d="M502.53,431.52H449.27q-8.53,0-13.27-.09c-3.16-.06-5.5-.1-7-.1h-4.17a34.68,34.68,0,0,1-13.27-3.69,38.07,38.07,0,0,1-10.61-8.06,36.76,36.76,0,0,1-9.67-25,36,36,0,0,1,2.94-14.4,36.72,36.72,0,0,1,19.55-19.62,36.05,36.05,0,0,1,14.52-2.93H508a28.07,28.07,0,0,1,11.2,2.27,28.51,28.51,0,0,1,15.37,15.35,28.51,28.51,0,0,1,2.28,11.37V402H428.42a7.54,7.54,0,0,1-5.21-2.28,7.57,7.57,0,0,1,0-10.23,7.34,7.34,0,0,1,5-2.28h93.63v-.38a14.24,14.24,0,0,0-14.41-14.4H428.23a22.2,22.2,0,0,0-8.62,1.7,20.93,20.93,0,0,0-7,4.74,24.14,24.14,0,0,0-4.73,7.11,21.9,21.9,0,0,0,3.79,23.31,22.21,22.21,0,0,0,13.76,7.3h53.53q8.54,0,13.29.09t7.11.1h3.9a35.31,35.31,0,0,1,13.19,3.69,37.11,37.11,0,0,1,10.72,8.15,37.67,37.67,0,0,1,7.12,11.47,37,37,0,0,1-.38,28,37,37,0,0,1-19.55,19.52A35.43,35.43,0,0,1,500,490.47h-79.9a27.93,27.93,0,0,1-11.3-2.28,29.11,29.11,0,0,1-15.27-15.26,27.79,27.79,0,0,1-2.28-11.27V446.12h108.6a6.72,6.72,0,0,1,5.21,2.46,7.62,7.62,0,0,1,0,9.86,6.78,6.78,0,0,1-5.21,2.46H406.06v.38a14.24,14.24,0,0,0,14.4,14.4h79.41a21.51,21.51,0,0,0,8.53-1.7,22.94,22.94,0,0,0,7-4.65,22.11,22.11,0,0,0,4.84-7,21.52,21.52,0,0,0,1.8-8.81,21.26,21.26,0,0,0-1.52-8,22.26,22.26,0,0,0-4.17-6.73A22.8,22.8,0,0,0,510.2,434,22.29,22.29,0,0,0,502.53,431.52Z" transform="translate(-59.75 -187.41)"/></svg>