<svg id="Capa_1" data-name="Capa 1" xmlns="http://www.w3.org/2000/svg" viewBox="0 0 475.77 412.31"><defs><style>.cls-1{fill:#39343e;}.cls-2{fill:#6752a8;}.cls-3{fill:#5c4e93;}.cls-4{fill:#fefefe;}</style></defs><path class="cls-1" d="M345.68,501.93c-2.64-4.38-4.83-8.05-7.05-11.71-9.06-14.91-18.18-29.8-27.18-44.76-1.47-2.44-2.68-3.64-5.09-1s-7.7,3.86-7.76,7.55c0,3.1,3.19,6.25,5.32,10-5.46,0-10.23-.06-15,0-2.91.05-3.31-2.44-4.37-4.14-5.92-9.49-5.88-9.5,2.87-16.49,8.55-6.83,17.09-13.68,25.89-20.73,19.34,32,38.47,63.65,58.09,96.12-11.37,0-21.78,0-32.19,0-6.32,0-13.81,1.94-18.63-.78s-7.6-9.86-10.07-15.59c-3.48-8.07-8.82-10.3-17.37-9.82-14.28.81-28.63.23-42.95.22-11.42,0-20.24-5.92-24-16.07s-.9-20.54,8.41-28q35.57-28.67,71.32-57.11c3-2.41,5.2-5.11,4.94-9.21-.29-4.76-3.71-8.19-8.85-8.37-5.63-.19-11.28,0-16.76,0-.69,1.14-.08,1.78.33,2.49,4.95,8.59,5,8.6-2.69,14.74q-12.08,9.69-24.17,19.34c-1.25,1-2.41,2.55-3.89.09-10.08-16.78-20.21-33.52-30.88-51.2h15.19c2.14,0,2.63,1.84,3.45,3.18,5.21,8.51,10.45,17,15.45,25.63,1.62,2.81,2.72,2.78,5.15.83,8.5-6.84,8.58-6.74,3-15.85-2.17-3.54-4.26-7.14-6.52-10.63-1.42-2.2-1.29-3.23,1.65-3.19,14.48.16,29,0,43.44.47,9.65.33,16.06,6,19.35,14.82,3.45,9.29,2,18-5.62,24.59-10.19,8.81-20.93,17-31.47,25.38q-20.89,16.63-41.86,33.2c-4.14,3.27-6.37,7.22-4.87,12.58,1.57,5.62,5.52,8.21,12.68,8.22,18.48.05,37,.13,55.44-.08,3.67,0,5.68,1.1,7.43,4.26,3.37,6.11,7.3,11.91,10.81,17.94,1.31,2.25,2.74,3.41,5.5,3.25C336.37,501.75,340.64,501.93,345.68,501.93Z" transform="translate(-59.75 -105.11)"/><path class="cls-1" d="M116.46,357.09c16.82,0,33.64-.17,50.46,0,26.74.33,44.48,25.12,35.73,49.65-5.26,14.74-19.16,24.27-36,24.48-9.15.11-18.31,0-27.47-.07-20-.06-40,0-60-.27-4.26-.06-5.29,1.25-5.2,5.32.26,11.81.18,23.64,0,35.46,0,3,.84,4,3.94,4,11,.15,11,.27,11-10.86,0-5.16.12-10.32,0-15.48-.09-2.61.82-3.35,3.42-3.45,11.41-.45,11.41-.54,11.41,10.87,0,10-.12,20,.07,30,0,3.09-.87,4-3.94,3.93q-18.24-.24-36.48,0c-2.88,0-3.63-.9-3.62-3.69.1-22.31.17-44.62,0-66.92,0-4.08,2.08-3.67,4.65-3.66q50.22.15,100.43.27c7.8,0,14.82-2,20-8.36,5.93-7.32,6.81-15.44,2.93-23.84C184,376.35,177.15,372,168.28,372c-30-.18-60,0-89.93-.13-3.16,0-4.29.68-4.29,4.08,0,11-.15,11,10.82,11q40,0,79.94,0c2,0,4-.2,5.85.81,2.75,1.47,4.34,3.57,4.21,6.76a6.84,6.84,0,0,1-4.64,6.46,14.78,14.78,0,0,1-5.89.79c-33.15,0-66.29-.09-99.43.09-4.2,0-5.26-1.12-5.16-5.23.28-11.81.22-23.64,0-35.45-.06-3.37,1-4.15,4.22-4.12C81.49,357.16,99,357.09,116.46,357.09Z" transform="translate(-59.75 -105.11)"/><path class="cls-2" d="M203.84,229c.89-1.51,2.64-1.76,4.08-2.39q43.05-19.15,86.14-38.23c2-.9,3.82-1.4,6.13-.37Q345,208,389.94,227.9c.45.2.86.49,1.33.76-.24,2-2,2-3.25,2.53q-43.24,19.34-86.52,38.6c-2.35,1-4.42,1.64-7.07.45q-44.34-19.94-88.78-39.66C205,230.27,204,230.14,203.84,229Z" transform="translate(-59.75 -105.11)"/><path class="cls-1" d="M463,496.2a72.26,72.26,0,0,1-72.44-72.75c.05-40.21,32.85-72.47,73.53-72.32,39.53.14,71.48,33.25,71.4,74C535.45,464.23,502.79,496.25,463,496.2Z" transform="translate(-59.75 -105.11)"/><path class="cls-3" d="M245.19,293.79c-5.1,1.8-4.74-2-4.48-6,.55-8.14,1.87-16.16,3.22-24.19.58-3.49,2-3.69,4.95-2.36,14.85,6.7,29.82,13.14,44.65,19.9a8.68,8.68,0,0,0,8-.05c15.15-6.86,30.4-13.48,45.52-20.39,2.9-1.33,4-1.08,4.54,2.17,1.45,9.21,2.14,18.48,2.89,27.76.25,3-.78,4-3.85,4.15-18.64.72-35.45,6.92-50.54,17.71-2.23,1.59-3.52,1.44-5.6,0a128.51,128.51,0,0,0-38-17.21A38,38,0,0,0,245.19,293.79Z" transform="translate(-59.75 -105.11)"/><path class="cls-4" d="M405.27,423.28c0-31.65,26.23-57.46,58.17-57.35,31.7.11,57.27,26,57.42,58.18.15,31.49-26.4,57.89-58,57.66C430.68,481.54,405.22,455.69,405.27,423.28Z" transform="translate(-59.75 -105.11)"/><path class="cls-1" d="M463.31,380.77c23.8.07,43.27,19.92,43.08,43.9-.19,23.14-20.1,42.43-43.64,42.27a43.4,43.4,0,0,1-43-43.87C419.83,400,439.71,380.69,463.31,380.77Z" transform="translate(-59.75 -105.11)"/><path class="cls-4" d="M491.62,424.33c0,15.37-12.84,27.92-28.51,27.94-16.45,0-28.67-12.51-28.59-29.31.07-15.22,13.08-27.87,28.69-27.87C479,395.08,491.64,408.12,491.62,424.33Z" transform="translate(-59.75 -105.11)"/><path class="cls-1" d="M216.54,126.93a9.18,9.18,0,0,1-2.48,6.58q-2.82,3-9.92,3l-1.55,0h-1.54a71.53,71.53,0,0,1-9.46-.33c-.42-.08-.63-.31-.63-.66q0-2.31.27-7t.27-7c0-1.67-.09-4.8-.26-9.41,0-1.17-.12-2.94-.24-5.3l0-.3c0-.28.21-.44.68-.5s2.13-.09,5-.09q6.89,0,8,0,5.31.19,7.83,1.72,3.34,2.06,3.34,6.93a5.64,5.64,0,0,1-.78,2.69,11.18,11.18,0,0,1-1.46,2,5.16,5.16,0,0,1-.8.82c0,.1.19.26.56.47a5.81,5.81,0,0,1,2.37,2.74A8.42,8.42,0,0,1,216.54,126.93Zm-9.27-12.14a2.4,2.4,0,0,0-1.86-2.46A13,13,0,0,0,202,112c-1.55,0-2.33.11-2.33.34s0,.69-.07,1.24-.08,1-.08,1.24c0,1.44.13,2.25.37,2.42a9,9,0,0,0,2.74.19Q207.27,117.44,207.27,114.79Zm.64,12.06a2.6,2.6,0,0,0-1.61-2.63,9.46,9.46,0,0,0-3.37-.44,9.91,9.91,0,0,0-3,.21,6.7,6.7,0,0,0-.24,2.64,6.94,6.94,0,0,0,.28,2.82c.19.18,1.23.27,3.11.27a10.27,10.27,0,0,0,3.28-.37A2.43,2.43,0,0,0,207.91,126.85Z" transform="translate(-59.75 -105.11)"/><path class="cls-1" d="M227.11,126.35c0,1.05,0,2.61.06,4.69s.07,3.64.07,4.67q0,.45-.54.54a42.2,42.2,0,0,1-6.62,0c-.32-.06-.51-.15-.58-.28a2.27,2.27,0,0,1-.05-.65c0-1,0-2.48.07-4.47s.06-3.49.06-4.5a80.31,80.31,0,0,0-.47-9.75c0-.23-.05-.38-.05-.45,0-.29.2-.43.59-.43s1,0,1.84.13,1.45.13,1.87.13,1,0,1.87-.11,1.46-.11,1.88-.11.52.14.52.43c0,.06,0,.2,0,.41A89.9,89.9,0,0,0,227.11,126.35Zm.56-16q0,3.75-4.23,3.75a4.66,4.66,0,0,1-3-1,3.41,3.41,0,0,1-1.29-2.8,3.37,3.37,0,0,1,1.34-2.76,4.5,4.5,0,0,1,2.95-1,4.42,4.42,0,0,1,2.91,1A3.39,3.39,0,0,1,227.67,110.33Z" transform="translate(-59.75 -105.11)"/><path class="cls-1" d="M251,124.54c0,1.45-.47,2.28-1.41,2.48-.15,0-1.64.19-4.46.47q-2.55.29-7.59.67a3.05,3.05,0,0,0,1.83,2.14,6.52,6.52,0,0,0,2.85.6,8.13,8.13,0,0,0,3.86-1l1.64-1a6.41,6.41,0,0,1,1.52,2.2,8.23,8.23,0,0,1,1.07,2.52c0,.1-.11.27-.33.5-1.75,1.88-4.48,2.83-8.17,2.83a11.51,11.51,0,0,1-8.28-3,10.63,10.63,0,0,1-3.24-8.13,11.62,11.62,0,0,1,2.89-8.13,10.15,10.15,0,0,1,7.9-3.28,9.35,9.35,0,0,1,7,3A10,10,0,0,1,251,124.54Zm-7.55-1.32a3.36,3.36,0,0,0-.95-2.35,3,3,0,0,0-2.27-1A2.73,2.73,0,0,0,238,121a3.92,3.92,0,0,0-.82,2.48c0,.39.2.58.61.58a37.9,37.9,0,0,0,5-.49C243.24,123.5,243.48,123.38,243.48,123.22Z" transform="translate(-59.75 -105.11)"/><path class="cls-1" d="M274.84,135.62a.61.61,0,0,1-.61.67,30.86,30.86,0,0,1-3.15.09,23.86,23.86,0,0,1-3.36-.13.79.79,0,0,1-.65-.88c0-.68,0-1.7.07-3.07s.06-2.39.06-3.08c0-.53,0-1.33,0-2.38s0-1.86,0-2.39c0-2-.86-3-2.57-3a3.7,3.7,0,0,0-2,.73c-.81.55-1.21,1.09-1.21,1.62V135.5a.7.7,0,0,1-.67.79c-.5.06-1.53.09-3.08.09a24.31,24.31,0,0,1-3.28-.13.68.68,0,0,1-.67-.71c0-1.12,0-2.81,0-5.07s0-4,0-5.09a33.26,33.26,0,0,0-.84-8.43,1.47,1.47,0,0,1,0-.33.47.47,0,0,1,.32-.47q1.36-.15,3.63-.48c2.28-.44,3.57-.66,3.86-.66s.28.48.36,1.45.21,1.46.37,1.46c-.16,0,.61-.5,2.32-1.5a9.14,9.14,0,0,1,4.47-1.5,7.78,7.78,0,0,1,4.58,1.29,4.85,4.85,0,0,1,2,4.14v6.89c0,.93,0,2.33,0,4.19S274.84,134.69,274.84,135.62Z" transform="translate(-59.75 -105.11)"/><path class="cls-1" d="M299.19,121.28a20.81,20.81,0,0,1-.24,4.36,25.59,25.59,0,0,1-3,5.2,53.89,53.89,0,0,1-3.68,4.91c-.38.45-1.51.67-3.39.67a18.49,18.49,0,0,1-3.19-.17,1.52,1.52,0,0,1-.76-.43,49.74,49.74,0,0,1-3.69-4.88,28.94,28.94,0,0,1-3.06-5.11,13.87,13.87,0,0,1-.54-4.46c0-.56,0-1.41,0-2.54s0-2,0-2.55c0-.38.25-.56.75-.56.73,0,1.84,0,3.31.06s2.58.07,3.31.07c.33,0,.5.22.5.67s0,1-.09,1.82-.08,1.43-.08,1.84c0,1.5,0,2.72.13,3.67a8.71,8.71,0,0,0,1.25,2.76c.82,1.42,1.41,2.13,1.79,2.13s.93-.69,1.72-2.09a9.46,9.46,0,0,0,1.23-2.67,32.73,32.73,0,0,0,.17-3.71c0-.42,0-1-.13-1.89s-.12-1.46-.12-1.86.15-.67.45-.67.86,0,1.54,0l1.54,0c.35,0,.87,0,1.57-.09s1.21-.08,1.56-.08a.69.69,0,0,1,.71.56A21.09,21.09,0,0,1,299.19,121.28Z" transform="translate(-59.75 -105.11)"/><path class="cls-1" d="M321.88,124.54c0,1.45-.47,2.28-1.4,2.48-.16,0-1.65.19-4.47.47q-2.55.29-7.59.67a3.05,3.05,0,0,0,1.83,2.14,6.55,6.55,0,0,0,2.85.6,8.13,8.13,0,0,0,3.86-1l1.64-1a6.41,6.41,0,0,1,1.52,2.2,8.23,8.23,0,0,1,1.07,2.52c0,.1-.11.27-.33.5-1.75,1.88-4.48,2.83-8.17,2.83a11.51,11.51,0,0,1-8.28-3,10.63,10.63,0,0,1-3.24-8.13,11.62,11.62,0,0,1,2.89-8.13,10.15,10.15,0,0,1,7.9-3.28,9.35,9.35,0,0,1,7,3A10,10,0,0,1,321.88,124.54Zm-7.55-1.32a3.36,3.36,0,0,0-.95-2.35,3,3,0,0,0-2.26-1,2.73,2.73,0,0,0-2.25,1.14,4,4,0,0,0-.82,2.48c0,.39.2.58.61.58a37.9,37.9,0,0,0,5-.49C314.09,123.5,314.33,123.38,314.33,123.22Z" transform="translate(-59.75 -105.11)"/><path class="cls-1" d="M345.69,135.62a.61.61,0,0,1-.61.67,30.75,30.75,0,0,1-3.14.09,23.94,23.94,0,0,1-3.37-.13.79.79,0,0,1-.65-.88c0-.68,0-1.7.07-3.07s.06-2.39.06-3.08c0-.53,0-1.33,0-2.38s0-1.86,0-2.39c0-2-.86-3-2.57-3a3.73,3.73,0,0,0-2,.73c-.81.55-1.21,1.09-1.21,1.62V135.5a.7.7,0,0,1-.67.79c-.5.06-1.53.09-3.08.09a24.31,24.31,0,0,1-3.28-.13.68.68,0,0,1-.67-.71c0-1.12,0-2.81,0-5.07s0-4,0-5.09a33.26,33.26,0,0,0-.84-8.43,1.47,1.47,0,0,1,0-.33.47.47,0,0,1,.32-.47q1.37-.15,3.63-.48c2.28-.44,3.57-.66,3.86-.66s.28.48.36,1.45.21,1.46.37,1.46c-.16,0,.61-.5,2.32-1.5a9.14,9.14,0,0,1,4.47-1.5,7.78,7.78,0,0,1,4.58,1.29,4.86,4.86,0,0,1,2,4.14v6.89c0,.93,0,2.33,0,4.19S345.69,134.69,345.69,135.62Z" transform="translate(-59.75 -105.11)"/><path class="cls-1" d="M357.27,126.35c0,1.05,0,2.61.06,4.69s.07,3.64.07,4.67q0,.45-.54.54a42.2,42.2,0,0,1-6.62,0c-.32-.06-.51-.15-.58-.28a2.27,2.27,0,0,1-.05-.65c0-1,0-2.48.07-4.47s.06-3.49.06-4.5a80.31,80.31,0,0,0-.47-9.75,4,4,0,0,1,0-.45c0-.29.19-.43.58-.43a18.3,18.3,0,0,1,1.84.13c.83.08,1.45.13,1.87.13s1,0,1.87-.11,1.46-.11,1.88-.11.52.14.52.43c0,.06,0,.2,0,.41A87.22,87.22,0,0,0,357.27,126.35Zm.56-16q0,3.75-4.23,3.75a4.65,4.65,0,0,1-3-1,3.59,3.59,0,0,1,0-5.56,4.5,4.5,0,0,1,3-1,4.42,4.42,0,0,1,2.92,1A3.4,3.4,0,0,1,357.83,110.33Z" transform="translate(-59.75 -105.11)"/><path class="cls-1" d="M384.29,105.65c0-.32-.05.15-.17,1.42-.16,1.59-.28,3.64-.36,6.12q-.18,4.23-.18,9.62a111.18,111.18,0,0,0,.5,12.69c0,.27,0,.44,0,.51s-.11.25-.32.28c-.52.07-2.42.11-5.72.11-.77,0-1.22-.15-1.33-.45l-.09-1.64a.64.64,0,0,0-.17-.35,1.52,1.52,0,0,0-.33.26,8,8,0,0,1-5.82,2.29,9.13,9.13,0,0,1-7.29-3.19,11.38,11.38,0,0,1-2.61-7.68A11.57,11.57,0,0,1,363,117.9a9.06,9.06,0,0,1,7.33-3.24,6.39,6.39,0,0,1,5.07,2.07c.2.23.34.35.43.35s.19-.19.19-.56c0-1.11,0-2.76-.08-5s-.09-3.84-.09-4.93c0-.42.12-.66.35-.72.92,0,2.18-.13,3.79-.25a32.42,32.42,0,0,0,3.82-.54C384.14,105.11,384.29,105.29,384.29,105.65Zm-8.13,19.82a4.25,4.25,0,0,0-1.18-3,3.75,3.75,0,0,0-2.87-1.28,3.44,3.44,0,0,0-2.82,1.28,4.73,4.73,0,0,0-1,3.07,4.36,4.36,0,0,0,1.05,3,3.5,3.5,0,0,0,2.81,1.29,3.74,3.74,0,0,0,2.89-1.29A4.4,4.4,0,0,0,376.16,125.47Z" transform="translate(-59.75 -105.11)"/><path class="cls-1" d="M408.24,125.64a10.92,10.92,0,0,1-3,8,11.68,11.68,0,0,1-15.72,0,10.43,10.43,0,0,1-3.06-7.76,11.38,11.38,0,0,1,2.93-8.12,10.39,10.39,0,0,1,7.94-3.12,10.65,10.65,0,0,1,7.9,3A10.81,10.81,0,0,1,408.24,125.64Zm-7.08,0a4.61,4.61,0,0,0-1.06-3,3.34,3.34,0,0,0-2.74-1.3,3.47,3.47,0,0,0-2.8,1.33,4.85,4.85,0,0,0,0,6,3.6,3.6,0,0,0,5.59,0A4.67,4.67,0,0,0,401.16,125.64Z" transform="translate(-59.75 -105.11)"/></svg>